<?xml version="1.0" encoding="utf-8"?>
<!-- Generator: Adobe Illustrator 18.0.0, SVG Export Plug-In . SVG Version: 6.00 Build 0)  -->
<!DOCTYPE svg PUBLIC "-//W3C//DTD SVG 1.1//EN" "http://www.w3.org/Graphics/SVG/1.1/DTD/svg11.dtd">
<svg version="1.1" id="Layer_1" xmlns="http://www.w3.org/2000/svg" xmlns:xlink="http://www.w3.org/1999/xlink" x="0px" y="0px"
	 viewBox="0 0 412.2 412.2" style="enable-background:new 0 0 412.2 412.2;" xml:space="preserve">
<style type="text/css">
	.st0{fill:#282829;}
	.st1{fill:#FFFFFF;}
</style>
<circle class="st0" cx="206.1" cy="206.1" r="206.1"/>
<path class="st1" d="M256.5,93.3v25c16.7,0.3,30.2,13.9,30.2,30.7s-13.5,30.3-30.2,30.5h-77l36.3-60.8h-30L84.3,288.8h30l50.2-84
	h92.1c30.8,0,55.7-24.9,55.7-55.7C312.3,118.2,287.3,93.3,256.5,93.3z"/>
<polygon class="st1" points="228.3,93.3 312.8,93.3 312.8,118.7 241.3,118.7 241.3,288.8 228.3,288.8 215.3,288.8 215.3,118.7 
	143.8,118.7 143.8,93.3 "/>
<g>
	<path class="st1" d="M100.8,310.3v-14l-5.6,14h-1.9l-5.6-14v14h-4.3v-20h6l4.9,12.1l4.9-12.1h6v20H100.8z"/>
	<path class="st1" d="M108.5,308.2c0-1.3,1.1-2.4,2.4-2.4s2.4,1.1,2.4,2.4s-1.1,2.4-2.4,2.4S108.5,309.5,108.5,308.2z"/>
	<path class="st1" d="M138.1,310.3v-8.4h-9.4v8.4h-4.3v-20h4.3v7.9h9.4v-7.9h4.3v20H138.1z"/>
	<path class="st1" d="M145.4,300.3c0-6,4.4-10.3,10.4-10.3c6.1,0,10.5,4.3,10.5,10.3c0,6-4.4,10.3-10.5,10.3
		C149.8,310.6,145.4,306.3,145.4,300.3z M161.9,300.3c0-3.8-2.4-6.6-6.1-6.6s-6.1,2.8-6.1,6.6c0,3.7,2.4,6.6,6.1,6.6
		S161.9,304,161.9,300.3z"/>
	<path class="st1" d="M169.3,310.3v-20h4.3v16.3h8.5v3.8H169.3z"/>
	<path class="st1" d="M183.2,300.3c0-6,4.4-10.3,10.4-10.3c6.1,0,10.5,4.3,10.5,10.3c0,6-4.4,10.3-10.5,10.3
		C187.6,310.6,183.2,306.3,183.2,300.3z M199.8,300.3c0-3.8-2.4-6.6-6.1-6.6s-6.1,2.8-6.1,6.6c0,3.7,2.4,6.6,6.1,6.6
		S199.8,304,199.8,300.3z"/>
	<path class="st1" d="M207.1,310.3v-20h9.4c4.4,0,6.7,2.9,6.7,6.4c0,3.5-2.4,6.5-6.7,6.5h-5.1v7.1H207.1z M218.9,296.7
		c0-1.7-1.3-2.7-2.9-2.7h-4.5v5.4h4.5C217.6,299.4,218.9,298.4,218.9,296.7z"/>
	<path class="st1" d="M237.4,310.3l-1.2-3.4h-8.6l-1.3,3.4h-4.9l7.7-20h5.3l7.7,20H237.4z M231.9,294.5l-3.1,8.6h6.2L231.9,294.5z"
		/>
	<path class="st1" d="M244.2,310.3v-20h4.3v20H244.2z"/>
	<path class="st1" d="M266.2,310.3l-9.5-13v13h-4.3v-20h4.4l9.3,12.6v-12.6h4.3v20H266.2z"/>
	<path class="st1" d="M274.2,310.3v-20h14.2v3.8h-9.9v4.2h9.7v3.8h-9.7v4.5h9.9v3.8H274.2z"/>
	<path class="st1" d="M305.5,310.3l-9.5-13v13h-4.3v-20h4.4l9.3,12.6v-12.6h4.3v20H305.5z"/>
</g>
<g>
</g>
<g>
</g>
<g>
</g>
<g>
</g>
<g>
</g>
<g>
</g>
</svg>
